<?xml version="1.0" encoding="utf-8"?>
<!-- Generator: Adobe Illustrator 23.0.1, SVG Export Plug-In . SVG Version: 6.00 Build 0)  -->
<svg version="1.1" id="itenium_logo" xmlns="http://www.w3.org/2000/svg" xmlns:xlink="http://www.w3.org/1999/xlink" x="0px"
	 y="0px" viewBox="0 0 10000 2704" style="enable-background:new 0 0 10000 2704;" xml:space="preserve">
<style type="text/css">
	.st0{display:none;}
	.st1{display:inline;fill:#12100B;}
	.st2{fill:#E48007;}
	.st3{fill:#868381;}
</style>
<g id="Background" class="st0">
	<rect x="0" y="-3544" class="st1" width="9982.3" height="10000"/>
</g>
<path id="dot" class="st2" d="M9360.5,1281.7c0,106.4-86.2,192.6-192.6,192.6c-106.3,0-192.6-86.2-192.6-192.6
	c0-106.3,86.2-192.6,192.6-192.6C9274.3,1089.1,9360.5,1175.3,9360.5,1281.7L9360.5,1281.7z"/>
<g id="itenium">
	<path class="st3" d="M7413.8,1196.3c0-26.8,3.7-51.1,11.2-72.9c7.5-21.8,20.7-40.5,39.9-55.9c19.1-15.5,45.3-27.5,78.6-36.2
		s75.7-12.9,127.4-12.9c47.1,0,85,3.7,113.9,11.2c28.9,7.5,51.3,19.6,67.1,36.4c15.9,16.8,26.4,38.9,31.6,66.3
		c5.2,27.4,7.7,60.9,7.7,100.7v373h110.2v-373c0-32.9-1.1-63.4-3.4-91.5c-2.3-28.1-7-53.6-14.1-76.3c-7.1-22.8-17.2-42.7-30.4-60
		s-30.7-31.6-52.5-43.3c-21.8-11.7-48.5-20.5-80-26.4c-31.6-5.9-69.3-8.9-113.3-8.9c-53.6,0-98.9,4.3-136,12.9
		c-37.1,8.6-68,19.2-92.7,31.8c-24.7,12.6-43.9,25.8-57.7,39.6c-13.8,13.8-23.9,25.8-30.4,36.2c-8-19.5-18.8-36.8-32.4-51.9
		c-13.6-15.1-31.2-27.7-52.8-37.9c-21.6-10.1-47.6-17.8-78-23c-30.4-5.2-66.3-7.7-107.6-7.7c-42.1,0-78.4,2.9-109,8.6
		c-30.6,5.7-56.7,13-78.3,21.8c-21.6,8.8-39.2,18.4-52.8,28.7c-13.6,10.3-24.3,20-32.1,29c-7.8,9-13.3,16.7-16.4,23.2
		c-3.1,6.5-4.8,10.3-5.2,11.5V945H6716v661h110.2v-409.7c0-26.8,3.7-51.1,11.2-72.9c7.5-21.8,20.7-40.5,39.9-55.9
		c19.1-15.5,45.3-27.5,78.6-36.2c33.3-8.6,75.7-12.9,127.4-12.9c47.1,0,85,3.7,113.9,11.2c28.9,7.5,51.3,19.6,67.1,36.4
		c15.9,16.8,26.4,38.9,31.6,66.3c5.2,27.4,7.7,60.9,7.7,100.7v373h110.2V1196.3L7413.8,1196.3z"/>
	<path class="st3" d="M4207.6,1608c46.9-7.1,84.6-18.4,113.3-33.9c28.7-15.5,49.2-35.8,61.7-60.8c12.4-25.1,18.6-55.4,18.6-90.9
		h-110.2c0,21.8-3.9,39.4-11.8,53c-7.8,13.6-21.5,24.2-41,31.8c-19.5,7.6-45.8,12.8-78.9,15.5c-33.1,2.7-74.9,4.1-125.4,4.1
		c-55.1,0-101.4-2-138.9-5.9c-37.5-3.9-67.7-13.1-90.7-27.7c-23-14.5-39.4-37.6-49.3-69.1c-10-31.5-14.9-71.9-14.9-121.1h651.8
		l9.2-36.7c0-34-1.8-66.4-5.5-97c-3.6-30.6-10.3-57.3-20.1-80c-9.8-22.8-23.1-44.5-40.2-65.1c-17-20.7-39.2-38.2-66.6-52.8
		c-27.4-14.5-60.3-25.6-98.7-33.3c-38.4-7.6-83.9-11.5-136.3-11.5c-73.4,0-135.8,5.5-187.1,16.6c-51.3,11.1-93,30.6-125.1,58.5
		c-32.1,27.9-55.5,65.5-70,112.8c-14.5,47.2-21.8,107-21.8,179.3c0,63.1,7.3,115.5,21.8,157.2c14.5,41.7,37.9,75,70,99.8
		c32.1,24.9,73.8,42.4,125.1,52.5c51.3,10.1,113.6,15.2,187.1,15.2C4102.9,1618.6,4160.8,1615.1,4207.6,1608L4207.6,1608z
		 M4151.7,1027.6c32.5,6.1,59.1,17.4,79.8,33.9c20.7,16.5,35.8,37.4,45.3,62.8c9.6,25.4,14.3,60.5,14.3,105.3h-550.9
		c0-33.7,2.2-62.4,6.6-86.4c4.4-23.9,11.3-42.5,20.7-55.7c9.4-13.2,21.7-24.7,37-34.4c15.3-9.8,33.8-17.2,55.4-22.4
		c21.6-5.2,46.9-8.5,75.7-10c28.9-1.5,61.7-2.3,98.4-2.3C4080,1018.4,4119.2,1021.5,4151.7,1027.6L4151.7,1027.6z M5319.4,1606
		l0.6-367.2c0-33.7-1.3-64.7-4-93.2c-2.7-28.5-8.1-54.3-16.4-77.5c-8.2-23.1-19.8-43.5-34.7-61.1c-14.9-17.6-34.7-32.3-59.4-44.2
		c-24.7-11.9-54.7-20.8-90.1-27c-35.4-6.1-77.6-9.2-126.5-9.2c-16.8,0-35.5,0.6-55.9,1.7c-20.5,1.1-41.6,3.4-63.4,6.6
		c-21.8,3.3-43.6,7.8-65.4,13.8c-21.8,5.9-42.1,13.7-60.8,23.2c-18.7,9.6-35.6,21.1-50.5,34.7c-14.9,13.6-26.4,29.7-34.4,48.5V945
		h-110.2v661h110.2v-404c0-27.5,4.1-52.6,12.3-75.2c8.2-22.6,23.2-41.9,45-58c21.8-16.1,51.7-28.5,89.8-37.3
		c38.1-8.8,86.9-13.2,146.6-13.2c55.1,0,99.5,3.8,133.1,11.5c33.7,7.7,59.7,20.1,78,37.3c18.4,17.2,30.6,39.9,36.7,68
		c6.1,28.1,9.2,62.6,9.2,103.6V1606H5319.4L5319.4,1606z M5503.6,1606h110.2V945h-110.2V1606L5503.6,1606z M5613.8,724.6h-110.2
		v110.2h110.2V724.6L5613.8,724.6z M5797.9,945l-0.6,367.2c0,33.3,1.3,63.9,4,91.8c2.7,27.9,8,53.3,16,76c8,22.8,19.5,42.7,34.4,60
		c14.9,17.2,34.7,31.7,59.3,43.3c24.6,11.7,54.6,20.5,90,26.4c35.3,5.9,77.7,8.9,127,8.9c59.4,0,109-4.4,149.1-13.2
		c40-8.8,72.7-19.6,97.9-32.3c25.3-12.8,44.2-26.7,56.9-41.6c12.6-15,21.6-28.6,27-41V1606h110.2V945H6459v400
		c0,27.3-4.1,52.1-12.4,74.4c-8.2,22.4-23.3,41.5-45.1,57.4c-21.8,15.9-51.8,28.2-89.9,36.9c-38.1,8.7-87,13.1-146.8,13.1
		c-55.1,0-99.6-3.8-133.3-11.4c-33.7-7.6-59.7-19.9-78.1-36.9c-18.4-17-30.6-39.5-36.8-67.3c-6.1-27.8-9.2-62-9.2-102.6V945H5797.9
		L5797.9,945z"/>
	<path class="st3" d="M3409.7,1312.2c0,33.3-1.3,61.3-4,84.1c-2.7,22.8-7,41.6-12.9,56.5c-5.9,14.9-13.7,26.5-23.2,34.7
		c-9.6,8.2-21.1,14.3-34.7,18.4c-13.6,4-29.5,6.4-47.6,7.2c-18.2,0.8-38.7,1.1-61.7,1.1c-29.1,0-53.7-0.8-73.7-2.3
		s-36.2-6.9-48.5-16c-12.2-9.2-21.1-23.7-26.7-43.5c-5.6-19.8-8.3-48.1-8.3-84.7v-330.9h414.9V945h-414.9V765.4h-110.2V945h-136
		v91.8h136v331c0,45.8,4.6,84,13.8,114.5c9.2,30.5,24.3,55,45.3,73.3c21,18.3,48.6,31.3,82.6,38.9c34,7.6,76.1,11.4,126.2,11.4
		c51.6,0,95.1-4.8,130.3-14.3c35.2-9.6,63.6-25.6,85.2-48.2c21.6-22.6,37-52.7,46.2-90.4c9.2-37.7,13.8-84.6,13.8-140.9H3409.7
		L3409.7,1312.2z"/>
	<rect x="2527.7" y="945" class="st3" width="110.2" height="661"/>
	<rect x="2527.7" y="724.6" class="st3" width="110.2" height="110.2"/>
</g>
<g id="Left_Parenthesis">
	<path class="st2" d="M1037.9,495.3l-99.4-70.9c-361,421.7-461.1,937.9-237.3,1224.6l137.3-125.2
		C650.9,1282.3,734.6,849.6,1037.9,495.3L1037.9,495.3z"/>
</g>
<g id="Right_Parenthesis">
	<path class="st2" d="M1097.5,2019.2l99.4,70.9c361-421.7,461.1-937.9,237.3-1224.6L1297,990.7
		C1484.5,1232.2,1400.7,1664.9,1097.5,2019.2L1097.5,2019.2z"/>
</g>
<g id="IT_Consultacy">
	<path class="st3" d="M3457.3,1984h34.9v278.8h-34.9V1984z"/>
	<path class="st3" d="M3863.9,1984v29h-139.4v249.8h-34.9v-249.8h-139.4v-29H3863.9z"/>
	<path class="st3" d="M3910.4,2140.9h139.4v29h-139.4V2140.9z"/>
	<path class="st3" d="M4398.2,2071.2c0-14.5-1.6-26-4.7-34.5c-3.1-8.5-8.4-14.9-15.6-19.2c-7.3-4.4-16.8-7.1-28.6-8.4
		c-11.8-1.2-26.4-1.8-43.8-1.8h-81.5c-15.5,0-28.5,0.5-39.1,1.4c-10.6,0.9-19.3,2.8-26.2,5.5c-6.9,2.8-12.2,6.8-16,12
		c-3.8,5.2-6.5,12.1-8.2,20.7c-1.7,8.6-2.7,19.2-2.9,31.7c-0.2,12.5-0.4,27.5-0.4,44.9c0,17.4,0.2,32.4,0.5,44.9
		c0.3,12.5,1.3,23.1,3,31.7c1.7,8.6,4.4,15.5,8.1,20.7c3.7,5.2,9,9.2,15.9,12c6.9,2.8,15.6,4.6,26.2,5.5c10.6,0.9,23.6,1.4,39.1,1.4
		h81.5c13.6,0,25.2-0.4,35-1.1c9.8-0.7,18.2-2.1,25.1-4c6.9-1.9,12.5-4.6,16.7-8c4.2-3.4,7.5-7.7,9.9-12.8c2.4-5.1,4-11.3,4.8-18.5
		c0.8-7.2,1.3-15.6,1.3-25.3h34.9c0,11.6-0.7,22.1-2.2,31.5c-1.5,9.4-4,17.7-7.7,25.1c-3.7,7.3-8.6,13.6-14.8,19
		c-6.2,5.3-14,9.7-23.4,13.2c-9.4,3.4-20.7,6-33.8,7.6c-13.1,1.6-28.3,2.5-45.7,2.5h-81.5c-21.3,0-39.2-1.3-53.8-3.9
		c-14.6-2.6-26.6-6.5-36-11.8c-9.4-5.3-16.7-11.9-21.9-19.9c-5.1-8-8.9-17.4-11.3-28.1c-2.4-10.8-3.7-22.9-4.1-36.5
		c-0.4-13.6-0.5-28.6-0.5-45c0-16.5,0.2-31.5,0.5-45c0.4-13.6,1.7-25.7,4.1-36.5c2.4-10.8,6.1-20.2,11.3-28.1
		c5.1-8,12.4-14.6,21.9-19.9c9.4-5.3,21.5-9.2,36-11.8c14.6-2.6,32.5-3.9,53.8-3.9h81.5c17.4,0,32.7,0.8,45.7,2.5
		c13.1,1.6,24.3,4.1,33.8,7.4c9.4,3.3,17.2,7.5,23.4,12.6s11.1,11.1,14.8,18c3.7,6.9,6.3,14.7,7.7,23.4c1.5,8.7,2.2,18.4,2.2,29
		H4398.2z"/>
	<path class="st3" d="M4462.1,2156c0-21.2,2.3-38.8,6.9-52.8c4.6-13.9,12-25,22.1-33.1c10.2-8.2,23.4-13.9,39.6-17.2
		c16.2-3.3,35.9-5,59.2-5c23.2,0,43,1.7,59.2,5c16.2,3.3,29.4,9,39.6,17.2c10.2,8.2,17.5,19.2,22.1,33.1c4.6,13.9,6.9,31.5,6.9,52.8
		c0,21.6-2.3,39.5-6.9,53.8c-4.6,14.3-12,25.6-22.1,34c-10.2,8.4-23.4,14.4-39.6,17.8c-16.2,3.5-35.9,5.2-59.2,5.2
		c-23.2,0-43-1.7-59.2-5.2c-16.2-3.5-29.4-9.4-39.6-17.8c-10.2-8.4-17.5-19.8-22.1-34C4464.4,2195.5,4462.1,2177.6,4462.1,2156z
		 M4497,2156c0,11.5,0.4,21.5,1.3,30c0.8,8.5,2.5,15.8,4.8,21.9s5.7,11.1,9.9,14.9c4.2,3.8,9.8,6.9,16.7,9.2
		c6.9,2.3,15.3,3.8,25.1,4.7c9.9,0.8,21.6,1.3,35.1,1.3c11.6,0,22-0.3,31.1-0.8c9.1-0.5,17.1-1.8,24-3.7c6.8-1.9,12.7-4.6,17.5-8.2
		c4.8-3.5,8.7-8.3,11.7-14.4c3-6.1,5.1-13.6,6.5-22.5c1.4-8.9,2.1-19.7,2.1-32.2c0-12.3-0.7-22.8-2.1-31.5
		c-1.4-8.7-3.6-15.9-6.5-21.8c-3-5.9-6.9-10.5-11.7-13.9c-4.8-3.4-10.7-6-17.5-7.7c-6.8-1.7-14.8-2.8-24-3.3
		c-9.1-0.5-19.5-0.7-31.1-0.7c-11.6,0-22,0.2-31.1,0.7c-9.1,0.5-17.1,1.6-24,3.3c-6.8,1.7-12.7,4.3-17.5,7.7
		c-4.8,3.4-8.7,8-11.7,13.9c-3,5.9-5.1,13.1-6.5,21.8C4497.7,2133.1,4497,2143.6,4497,2156z"/>
	<path class="st3" d="M4967.5,2262.9v-116.2c0-12.9-1-23.9-2.9-32.8c-1.9-8.9-5.8-16.1-11.6-21.5c-5.8-5.4-14-9.4-24.7-11.8
		c-10.7-2.4-24.7-3.6-42.1-3.6c-18.9,0-34.3,1.4-46.4,4.2c-12,2.8-21.5,6.7-28.4,11.8c-6.9,5.1-11.6,11.2-14.3,18.3
		c-2.6,7.1-3.9,15.1-3.9,23.8v127.8h-34.9v-209.1h34.9v34.9c2.5-5.9,6.2-11,10.9-15.3c4.7-4.3,10-8,16-11c5.9-3,12.3-5.5,19.2-7.4
		c6.9-1.9,13.8-3.3,20.7-4.4c6.9-1,13.6-1.7,20.1-2.1c6.5-0.4,12.4-0.5,17.7-0.5c15.5,0,28.8,1,40,2.9c11.2,1.9,20.7,4.8,28.5,8.5
		c7.8,3.8,14.1,8.4,18.8,14c4.7,5.6,8.4,12,11,19.3c2.6,7.3,4.3,15.5,5.2,24.5c0.8,9,1.3,18.9,1.3,29.5l-0.2,116.2H4967.5z"/>
	<path class="st3" d="M5127.7,2166.8c-12.5-0.5-23.2-1.5-32.2-3c-9-1.5-16.5-3.7-22.5-6.4c-6-2.8-10.7-6.5-14.3-11.2
		c-3.5-4.7-6-10.4-7.4-17.2c-1.5-6.8-2.2-14.3-2.2-22.2c0-10.9,2.3-20.1,6.9-27.5c4.6-7.4,12-13.5,22.1-18.2
		c10.2-4.7,23.4-8,39.6-10.1c16.2-2.1,35.9-3.1,59.2-3.1c23,0,42,1.2,56.9,3.6c14.9,2.4,26.8,6.1,35.6,11.2c8.8,5,14.9,11.3,18.4,19
		c3.5,7.6,5.3,16.7,5.3,27.2h-34.9c0-6.5-1.2-11.9-3.7-16c-2.5-4.1-6.8-7.4-13-9.7c-6.2-2.4-14.5-4-25-4.9
		c-10.5-0.9-23.7-1.4-39.7-1.4c-17.4,0-32.1,0.2-43.9,0.7c-11.9,0.5-21.4,1.7-28.7,3.6c-7.3,1.9-12.5,4.9-15.6,8.9
		c-3.1,4-4.7,9.5-4.7,16.5c0,4.1,0.3,8.1,0.8,12.1c0.5,3.9,1.8,7.2,3.7,9.7c1.9,2.5,4.8,4.5,8.5,5.8c3.8,1.3,8.9,2.3,15.3,3
		c6.5,0.7,14.5,1,24.1,1.1c9.6,0.1,21.1,0.1,34.7,0.1c16.5,0,30.9,0.4,43.3,1.1c12.4,0.7,23.1,2,32.2,3.8s16.6,4.6,22.5,8.4
		c5.9,3.8,10.7,7.8,14.3,12.3c3.6,4.4,6.1,9.6,7.5,15.6c1.5,6,2.2,12.9,2.2,20.8c0,7.9-0.7,14.9-2.2,21.1c-1.5,6.2-4,11.7-7.6,16.5
		c-3.6,4.8-8.6,8.9-14.8,12.3c-6.2,3.4-14.1,6.2-23.5,8.4c-9.4,2.1-20.7,3.7-33.9,4.7c-13.1,1-28.4,1.5-45.8,1.5
		c-21.8,0-40.1-1.1-54.9-3.3c-14.8-2.2-26.8-5.7-35.9-10.4c-9.1-4.8-15.6-11-19.5-18.6c-3.9-7.6-5.9-16.9-5.9-28h34.9
		c0,7.3,1.2,13.2,3.7,17.7c2.5,4.5,6.8,8.1,13,10.6c6.2,2.5,14.5,4.3,25,5.2c10.5,0.9,23.7,1.4,39.7,1.4c14.5,0,26.9-0.3,37.1-1
		c10.2-0.7,18.8-1.7,25.7-3.2c6.9-1.5,12.3-3.2,16.3-5.3c4-2.1,7-4.5,9.1-7.4c2.1-2.9,3.4-6.1,3.9-9.7c0.5-3.6,0.8-7.5,0.8-11.9
		c0-4-0.3-7.5-0.8-10.6c-0.5-3.1-1.8-6.2-3.7-9.3c-1.9-3.1-4.8-5.4-8.5-7c-3.8-1.6-8.9-2.9-15.3-3.9c-6.5-1-14.5-1.8-24.1-2.2
		c-9.6-0.4-21.1-0.6-34.7-0.6C5154.6,2167.6,5140.1,2167.3,5127.7,2166.8z"/>
	<path class="st3" d="M5374.4,2053.7v115.1c0,12.8,1,23.6,2.9,32.4c1.9,8.8,5.8,15.9,11.6,21.3c5.8,5.4,14.1,9.3,24.7,11.7
		c10.7,2.4,24.7,3.6,42.2,3.6c18.9,0,34.4-1.4,46.4-4.1c12.1-2.8,21.5-6.7,28.4-11.7c6.9-5,11.7-11.1,14.3-18.2
		c2.6-7.1,3.9-14.9,3.9-23.5v-126.6h34.9v209.1h-34.9v-36.6c-1.7,3.9-4.5,8.2-8.5,13c-4,4.7-10,9.1-18,13.2c-8,4-18.3,7.5-31,10.2
		c-12.7,2.8-28.4,4.2-47.2,4.2c-15.6,0-29-0.9-40.2-2.8c-11.2-1.9-20.7-4.7-28.5-8.4c-7.8-3.7-14.1-8.3-18.8-13.7
		c-4.7-5.4-8.3-11.8-10.9-19c-2.5-7.2-4.2-15.2-5.1-24.1c-0.8-8.8-1.3-18.5-1.3-29l0.2-116.2H5374.4z"/>
	<path class="st3" d="M5641.8,1984h34.9v278.8h-34.9V1984z"/>
	<path class="st3" d="M5938.1,2169.9c0,17.8-1.5,32.6-4.4,44.6c-2.9,11.9-7.8,21.5-14.6,28.6c-6.8,7.1-15.8,12.2-27,15.3
		c-11.1,3-24.9,4.5-41.2,4.5c-15.9,0-29.2-1.2-39.9-3.6c-10.8-2.4-19.5-6.5-26.1-12.3c-6.7-5.8-11.4-13.5-14.3-23.2
		c-2.9-9.7-4.4-21.7-4.4-36.2v-104.7h-43v-29h43v-56.8h34.9v56.8h131.3v29H5801v104.7c0,11.6,0.9,20.5,2.6,26.8
		c1.8,6.3,4.6,10.9,8.4,13.8c3.9,2.9,9,4.6,15.3,5.1c6.4,0.5,14.1,0.7,23.3,0.7c7.3,0,13.8-0.1,19.5-0.4c5.7-0.2,10.8-1,15.1-2.3
		c4.3-1.3,8-3.2,11-5.8c3-2.6,5.5-6.3,7.4-11c1.9-4.7,3.2-10.7,4.1-17.9c0.8-7.2,1.3-16.1,1.3-26.6H5938.1z"/>
	<path class="st3" d="M6181.1,2234.2c-0.4,1.5-3.1,5.1-8.2,10.9c-3.6,4.4-8.5,8.2-14.5,11.5c-6.1,3.3-14.1,5.9-24.2,7.8
		c-10.1,1.9-23.4,2.8-39.8,2.8c-21.9,0-40.6-1.1-56.1-3.4c-15.5-2.2-28.1-5.7-37.9-10.3c-9.8-4.7-17-10.6-21.5-17.9
		c-4.5-7.3-6.8-15.9-6.8-26c0-10.5,1.2-19.5,3.7-26.8c2.5-7.3,6.1-13.5,10.9-18.4c4.8-5,10.6-8.8,17.3-11.6
		c6.8-2.8,14.5-4.9,23.1-6.4c8.7-1.5,18.1-2.4,28.4-2.7c10.3-0.4,21.2-0.5,32.9-0.5c16.6,0,30.4,0.7,41.6,2.1
		c11.1,1.4,20.2,3.1,27.3,5.3c7.1,2.1,12.4,4.4,16.1,6.8c3.6,2.4,6.2,4.7,7.8,6.7c0-13.6-0.6-25.1-1.7-34.7c-1.2-9.6-3-17.5-5.6-24
		c-2.6-6.4-6-11.5-10.1-15.3c-4.1-3.8-9.2-6.7-15.2-8.6c-6-1.9-13-3.2-21-3.7c-8-0.5-17.1-0.8-27.4-0.8c-16,0-29.2,0.4-39.8,1.2
		c-10.5,0.8-18.9,2.3-25.1,4.6c-6.2,2.3-10.5,5.5-13.1,9.5c-2.5,4.1-3.8,9.3-3.8,15.9h-34.9c0-11,2-20.3,5.9-28
		c3.9-7.6,10.5-13.8,19.6-18.6c9.1-4.8,21.1-8.3,36-10.4c14.9-2.2,33.2-3.3,55-3.3c21.3,0,39.3,1.8,54.1,5.3
		c14.8,3.5,26.7,9.7,35.9,18.5c9.1,8.8,15.7,20.7,19.8,35.7c4.1,14.9,6.1,33.9,6.1,56.7v98.8h-34.9V2234.2z M6100.2,2238.2
		c15.4,0,28.2-0.7,38.6-2.1s18.7-3.6,25-6.4c6.3-2.9,10.8-6.4,13.4-10.7c2.7-4.3,4-9.3,4-15c0-5.7-1.5-10.6-4.6-14.6
		c-3.1-4-8.2-7.3-15.4-9.8c-7.2-2.5-16.7-4.3-28.6-5.5c-11.9-1.1-26.5-1.7-43.9-1.7c-17.4,0-31.5,0.3-42.2,0.9s-19,2-24.8,4.1
		s-9.7,5.3-11.7,9.5c-2,4.2-3,9.8-3,17c0,7.2,1.1,13,3.2,17.5c2.1,4.5,6.4,8,13,10.5c6.5,2.5,15.9,4.2,28.2,5.1
		C6063.5,2237.7,6079.8,2238.2,6100.2,2238.2z"/>
	<path class="st3" d="M6471.6,2262.9v-116.2c0-12.9-1-23.9-2.9-32.8c-1.9-8.9-5.8-16.1-11.6-21.5s-14-9.4-24.7-11.8
		c-10.7-2.4-24.7-3.6-42.1-3.6c-18.9,0-34.3,1.4-46.4,4.2c-12,2.8-21.5,6.7-28.4,11.8c-6.9,5.1-11.7,11.2-14.3,18.3
		c-2.6,7.1-3.9,15.1-3.9,23.8v127.8h-34.9v-209.1h34.9v34.9c2.5-5.9,6.2-11,10.9-15.3c4.7-4.3,10-8,16-11c5.9-3,12.3-5.5,19.2-7.4
		c6.9-1.9,13.8-3.3,20.7-4.4c6.9-1,13.6-1.7,20.1-2.1c6.5-0.4,12.4-0.5,17.7-0.5c15.5,0,28.8,1,40,2.9c11.2,1.9,20.7,4.8,28.5,8.5
		c7.8,3.8,14.1,8.4,18.8,14c4.7,5.6,8.4,12,11,19.3c2.6,7.3,4.3,15.5,5.2,24.5c0.8,9,1.3,18.9,1.3,29.5l-0.2,116.2H6471.6z"/>
	<path class="st3" d="M6547.3,2157.8c0-14.4,0.7-27.1,2.2-38.2s4-20.6,7.7-28.8c3.7-8.2,8.6-15,14.9-20.4
		c6.2-5.5,14.1-9.9,23.6-13.2s20.8-5.8,33.8-7.2c13.1-1.4,28.3-2.2,45.7-2.2c23.3,0,42.4,1.4,57.4,4.3c15,2.8,26.9,7.2,35.6,13.1
		c8.7,5.9,14.8,13.3,18.2,22.3c3.4,9,5.1,19.8,5.1,32.2h-34.9c0-4.5-0.1-8.7-0.4-12.5c-0.2-3.9-1.1-7.4-2.6-10.5
		c-1.5-3.1-3.9-6-7.2-8.4c-3.3-2.5-7.9-4.6-14-6.3c-6.1-1.7-13.7-3-23-3.8c-9.3-0.8-20.7-1.3-34.3-1.3c-15.5,0-28.6,0.5-39.2,1.6
		c-10.6,1.1-19.4,2.8-26.3,5.3c-6.9,2.5-12.2,5.7-16,9.9s-6.5,9.2-8.2,15.2c-1.7,6-2.7,13-3,21.1c-0.3,8.1-0.5,17.4-0.5,27.9
		c0,10.3,0.2,19.4,0.5,27.4c0.3,8,1.3,14.9,3,20.8s4.4,10.9,8.2,15c3.8,4.1,9.1,7.4,16,9.9c6.9,2.5,15.7,4.3,26.3,5.4
		c10.6,1.1,23.7,1.6,39.2,1.6c13.6,0,25-0.5,34.3-1.4c9.3-0.9,16.9-2.3,23-4c6.1-1.7,10.7-3.9,14-6.5c3.3-2.6,5.7-5.5,7.2-8.8
		c1.5-3.3,2.4-7,2.6-11c0.2-4,0.4-8.3,0.4-13h34.9c0,12.7-1.7,23.7-5.1,33c-3.4,9.3-9.4,17-18.2,23c-8.7,6-20.6,10.4-35.6,13.3
		c-15,2.9-34.2,4.4-57.4,4.4c-17.4,0-32.7-0.7-45.7-2.2c-13.1-1.5-24.3-3.9-33.8-7.2c-9.5-3.4-17.4-7.8-23.6-13.3
		c-6.2-5.5-11.2-12.3-14.9-20.3c-3.7-8.1-6.3-17.5-7.7-28.5C6548,2184.5,6547.3,2171.9,6547.3,2157.8z"/>
	<path class="st3" d="M6826.3,2053.7l40.6,0l93,185.9l88-185.2h41.1l-104.7,209.1l-5.9,11.7c-2.8,5.8-5.6,11.2-8.5,16.4
		c-2.9,5.1-6.2,9.8-10,14c-3.8,4.2-8.3,8-13.5,11.3c-5.2,3.3-11.4,6.1-18.6,8.5c-7.2,2.3-15.8,4.1-25.7,5.3
		c-9.9,1.2-21.7,1.9-35.2,1.9v-29c11.6,0,21.4-0.5,29.4-1.4c8-0.9,14.7-2.2,20.1-4c5.4-1.8,9.7-3.8,13-6.3c3.3-2.4,6-5.1,8.2-8.2
		c2.2-3,4.1-6.3,5.7-9.7c1.7-3.4,3.4-7.1,5.3-11l-12-0.1L6826.3,2053.7z"/>
</g>
</svg>
