<?xml version="1.0" encoding="UTF-8"?>
<svg id="Layer_1" data-name="Layer 1" xmlns="http://www.w3.org/2000/svg" viewBox="0 0 2207.79 495.68">
  <defs>
    <style>
      .cls-1 {
        fill: #fff;
      }
    </style>
  </defs>
  <g id="itenium">
    <path class="cls-1" d="M2032.93,229.7c0-7.97,1.11-15.2,3.33-21.69,2.22-6.49,6.17-12.04,11.87-16.65,5.69-4.61,13.49-8.2,23.39-10.76,9.9-2.56,22.54-3.84,37.91-3.84,14,0,25.3,1.11,33.9,3.33,8.59,2.22,15.25,5.84,19.98,10.84,4.72,5.01,7.86,11.58,9.39,19.72,1.54,8.14,2.31,18.13,2.31,29.97v110.99h32.79v-110.99c0-9.79-.34-18.87-1.02-27.24-.68-8.37-2.08-15.94-4.18-22.71-2.11-6.77-5.12-12.72-9.05-17.84-3.93-5.12-9.14-9.42-15.62-12.89-6.49-3.47-14.43-6.09-23.82-7.86-9.39-1.76-20.64-2.65-33.73-2.65-15.94,0-29.43,1.28-40.47,3.84-11.04,2.56-20.23,5.72-27.58,9.48-7.34,3.76-13.06,7.68-17.16,11.78-4.1,4.1-7.12,7.68-9.05,10.76-2.39-5.81-5.61-10.96-9.65-15.45-4.04-4.5-9.28-8.25-15.71-11.27-6.43-3.01-14.17-5.29-23.22-6.83-9.05-1.54-19.72-2.31-32.02-2.31s-23.34.85-32.44,2.56c-9.11,1.71-16.88,3.87-23.31,6.49-6.43,2.62-11.67,5.46-15.71,8.54-4.04,3.07-7.23,5.95-9.56,8.62-2.33,2.68-3.96,4.98-4.87,6.92-.91,1.94-1.42,3.07-1.54,3.42v-31.08h-32.79v196.71h32.79v-121.92c0-7.97,1.11-15.2,3.33-21.69,2.22-6.49,6.17-12.04,11.87-16.65,5.69-4.61,13.49-8.2,23.39-10.76,9.9-2.56,22.54-3.84,37.91-3.84,14,0,25.3,1.11,33.9,3.33,8.59,2.22,15.25,5.84,19.98,10.84,4.72,5.01,7.85,11.58,9.39,19.72,1.54,8.14,2.31,18.13,2.31,29.97v110.99h32.79v-121.92h0Z"/>
    <path class="cls-1" d="M1078.82,352.22c13.94-2.11,25.19-5.46,33.72-10.07,8.54-4.61,14.66-10.64,18.36-18.1,3.7-7.45,5.55-16.48,5.55-27.07h-32.79c0,6.48-1.17,11.74-3.5,15.78-2.33,4.05-6.4,7.2-12.21,9.47-5.81,2.27-13.63,3.8-23.48,4.61-9.85.81-22.28,1.21-37.31,1.21-16.39,0-30.17-.58-41.32-1.75-11.16-1.16-20.15-3.91-26.98-8.24-6.83-4.33-11.73-11.18-14.69-20.56-2.96-9.38-4.44-21.39-4.44-36.05h193.98l2.73-10.93c0-10.13-.54-19.75-1.62-28.86-1.08-9.11-3.07-17.05-5.98-23.82-2.9-6.77-6.89-13.23-11.95-19.38-5.07-6.15-11.67-11.38-19.81-15.71-8.14-4.33-17.93-7.63-29.37-9.9-11.44-2.28-24.96-3.42-40.56-3.42-21.86,0-40.41,1.65-55.67,4.95-15.26,3.3-27.66,9.11-37.23,17.42-9.56,8.31-16.51,19.5-20.83,33.55-4.33,14.06-6.49,31.85-6.49,53.36,0,18.78,2.16,34.38,6.49,46.79,4.33,12.41,11.27,22.31,20.83,29.71,9.56,7.4,21.97,12.61,37.23,15.62,15.25,3.01,33.81,4.53,55.67,4.53,20.49,0,37.71-1.05,51.65-3.16h0ZM1062.17,179.5c9.67,1.82,17.59,5.18,23.74,10.07,6.15,4.9,10.64,11.13,13.49,18.7,2.84,7.57,4.27,18.02,4.27,31.33h-163.93c0-10.02.65-18.58,1.96-25.7,1.31-7.11,3.36-12.64,6.15-16.56,2.79-3.93,6.46-7.34,11.01-10.25,4.55-2.9,10.05-5.12,16.48-6.66,6.43-1.54,13.94-2.53,22.54-2.99,8.59-.45,18.36-.68,29.29-.68,13.66,0,25.33.91,35.01,2.73h0ZM1409.66,351.62l.17-109.29c0-10.02-.4-19.27-1.2-27.75-.8-8.48-2.42-16.16-4.87-23.05-2.45-6.89-5.89-12.95-10.33-18.19-4.44-5.23-10.33-9.62-17.67-13.15-7.34-3.53-16.28-6.2-26.81-8.03-10.53-1.82-23.08-2.73-37.65-2.73-5.01,0-10.56.17-16.65.51-6.09.34-12.38,1-18.87,1.96-6.49.97-12.98,2.33-19.47,4.1-6.49,1.77-12.52,4.07-18.1,6.92-5.58,2.85-10.59,6.29-15.03,10.33-4.44,4.04-7.86,8.85-10.25,14.43v-32.79h-32.79v196.71h32.79v-120.21c0-8.2,1.22-15.65,3.67-22.37,2.45-6.72,6.92-12.47,13.4-17.25,6.49-4.78,15.39-8.48,26.72-11.1,11.33-2.62,25.87-3.93,43.63-3.93,16.39,0,29.6,1.14,39.62,3.42,10.02,2.28,17.76,5.98,23.22,11.1,5.46,5.12,9.11,11.87,10.93,20.23,1.82,8.37,2.73,18.64,2.73,30.82v109.29h32.79ZM1464.48,351.62h32.79v-196.71h-32.79v196.71h0ZM1497.26,89.34h-32.79v32.79h32.79v-32.79h0ZM1552.08,154.91l-.17,109.29c0,9.9.4,19.01,1.19,27.32.8,8.31,2.39,15.85,4.78,22.63,2.39,6.77,5.8,12.72,10.23,17.84,4.43,5.12,10.32,9.42,17.66,12.89,7.33,3.47,16.26,6.09,26.78,7.85,10.52,1.76,23.11,2.65,37.79,2.65,17.66,0,32.45-1.31,44.36-3.92,11.91-2.61,21.62-5.82,29.14-9.63,7.52-3.8,13.16-7.93,16.92-12.39,3.76-4.46,6.44-8.52,8.03-12.21v34.39h32.79v-196.71h-32.79v119.04c0,8.12-1.23,15.5-3.68,22.15-2.45,6.65-6.92,12.35-13.42,17.08-6.49,4.74-15.41,8.4-26.75,10.99-11.34,2.59-25.9,3.89-43.67,3.89-16.41,0-29.63-1.13-39.66-3.38-10.03-2.25-17.78-5.92-23.25-10.99-5.47-5.07-9.12-11.75-10.94-20.04-1.82-8.28-2.73-18.46-2.73-30.52v-108.22h-32.62Z"/>
    <path class="cls-1" d="M841.38,264.19c0,9.9-.4,18.24-1.2,25.02-.8,6.77-2.08,12.38-3.84,16.82-1.77,4.44-4.07,7.88-6.92,10.33-2.85,2.45-6.29,4.27-10.33,5.46-4.04,1.2-8.77,1.91-14.17,2.13-5.41.23-11.53.34-18.36.34-8.65,0-15.97-.23-21.94-.68-5.98-.45-10.79-2.04-14.43-4.77-3.64-2.72-6.29-7.04-7.94-12.95-1.65-5.9-2.48-14.31-2.48-25.21v-98.46h123.46v-27.32h-123.46v-53.45h-32.79v53.45h-40.47v27.32h40.47v98.5c0,13.63,1.37,24.99,4.1,34.08,2.73,9.09,7.23,16.36,13.49,21.81,6.26,5.45,14.46,9.31,24.59,11.59,10.13,2.27,22.65,3.41,37.57,3.41s28.29-1.42,38.76-4.27c10.47-2.84,18.92-7.63,25.36-14.34,6.43-6.72,11.01-15.68,13.75-26.89,2.73-11.21,4.1-25.19,4.1-41.92h-27.32Z"/>
    <rect class="cls-1" x="578.89" y="154.91" width="32.79" height="196.71"/>
    <rect class="cls-1" x="578.89" y="89.34" width="32.79" height="32.79"/>
  </g>
  <g id="Left_Parenthesis" data-name="Left Parenthesis">
    <path class="cls-1" d="M135.53,21.09L105.95,0C-1.47,125.48-31.27,279.1,35.32,364.42l40.85-37.25C20.37,255.31,45.3,126.52,135.53,21.09h0Z"/>
  </g>
  <g id="Right_Parenthesis" data-name="Right Parenthesis">
    <path class="cls-1" d="M153.28,474.59l29.58,21.09c107.42-125.48,137.22-279.1,70.62-364.42l-40.85,37.25c55.8,71.87,30.88,200.65-59.35,306.08h0Z"/>
  </g>
</svg>