<?xml version="1.0" encoding="utf-8"?>
<!-- Generator: Adobe Illustrator 22.1.0, SVG Export Plug-In . SVG Version: 6.00 Build 0)  -->
<svg version="1.1" id="Layer_1" xmlns="http://www.w3.org/2000/svg" xmlns:xlink="http://www.w3.org/1999/xlink" x="0px" y="0px"
	 viewBox="0 0 10000 10000" style="enable-background:new 0 0 10000 10000;" xml:space="preserve">
<style type="text/css">
	.st0{clip-path:url(#SVGID_3_);}
	.st1{clip-path:url(#SVGID_4_);fill:#E78200;}
	.st2{clip-path:url(#SVGID_7_);}
	.st3{clip-path:url(#SVGID_8_);fill:#E78200;}
	.st4{fill:#E78200;}
	.st5{clip-path:url(#SVGID_10_);fill:#7E7E7E;}
	.st6{fill:#7E7E7E;}
	.st7{clip-path:url(#SVGID_12_);fill:#7E7E7E;}
</style>
<g>
	<g>
		<defs>
			
				<rect id="SVGID_1_" x="3424.4" y="4758.6" transform="matrix(0.6946 -0.7194 0.7194 0.6946 -2412.1414 4112.6646)" width="427.2" height="277.8"/>
		</defs>
		<defs>
			<rect id="SVGID_2_" x="3560" y="4707" width="2879" height="520"/>
		</defs>
		<clipPath id="SVGID_3_">
			<use xlink:href="#SVGID_1_"  style="overflow:visible;"/>
		</clipPath>
		<clipPath id="SVGID_4_" class="st0">
			<use xlink:href="#SVGID_2_"  style="overflow:visible;"/>
		</clipPath>
		<path class="st1" d="M3702.7,4729.5l-31-22.1c-112.5,131.4-143.7,292.3-74,381.7l42.8-39
			C3582.1,4974.8,3608.2,4839.9,3702.7,4729.5L3702.7,4729.5z"/>
	</g>
	<g>
		<defs>
			
				<rect id="SVGID_5_" x="3572.4" y="4897.5" transform="matrix(0.6946 -0.7194 0.7194 0.6946 -2466.9302 4261.5557)" width="427.2" height="277.8"/>
		</defs>
		<defs>
			<rect id="SVGID_6_" x="3560" y="4707" width="2879" height="520"/>
		</defs>
		<clipPath id="SVGID_7_">
			<use xlink:href="#SVGID_5_"  style="overflow:visible;"/>
		</clipPath>
		<clipPath id="SVGID_8_" class="st2">
			<use xlink:href="#SVGID_6_"  style="overflow:visible;"/>
		</clipPath>
		<path class="st3" d="M3721.3,5204.5l31,22.1c112.5-131.4,143.7-292.3,74-381.7l-42.8,39C3841.9,4959.1,3815.8,5094,3721.3,5204.5
			L3721.3,5204.5z"/>
	</g>
	<path class="st4" d="M6438.7,4974.6c0,33.2-26.9,60-60,60c-33.1,0-60-26.9-60-60c0-33.1,26.9-60,60-60
		C6411.9,4914.5,6438.7,4941.4,6438.7,4974.6L6438.7,4974.6z"/>
	<g>
		<defs>
			<rect id="SVGID_9_" x="4431.9" y="4707" width="1337" height="520"/>
		</defs>
		<clipPath id="SVGID_10_">
			<use xlink:href="#SVGID_9_"  style="display:none;overflow:visible;"/>
		</clipPath>
		<path class="st5" d="M4522.4,4984.1c0,10.4-0.4,19.1-1.3,26.2c-0.8,7.1-2.2,13-4,17.6c-1.9,4.7-4.3,8.3-7.2,10.8
			c-3,2.6-6.6,4.5-10.8,5.7c-4.2,1.3-9.2,2-14.8,2.2c-5.7,0.2-12.1,0.4-19.2,0.4c-9.1,0-16.7-0.2-23-0.7c-6.3-0.5-11.3-2.1-15.1-5
			c-3.8-2.9-6.6-7.4-8.3-13.6c-1.7-6.2-2.6-15-2.6-26.4v-103.1h129.3v-28.6H4416v-56h-34.3v56h-42.4v28.6h42.4v103.2
			c0,14.3,1.4,26.2,4.3,35.7c2.9,9.5,7.6,17.1,14.1,22.8c6.6,5.7,15.1,9.8,25.8,12.1c10.6,2.4,23.7,3.6,39.3,3.6
			c16.1,0,29.6-1.5,40.6-4.5c11-3,19.8-8,26.6-15c6.7-7,11.5-16.4,14.4-28.2c2.9-11.7,4.3-26.4,4.3-43.9H4522.4L4522.4,4984.1z"/>
	</g>
	<path class="st6" d="M4771.1,5076.3c14.6-2.2,26.4-5.7,35.3-10.6s15.4-11.1,19.2-19c3.9-7.8,5.8-17.3,5.8-28.3h-34.3
		c0,6.8-1.2,12.3-3.7,16.5c-2.4,4.2-6.7,7.5-12.8,9.9c-6.1,2.4-14.3,4-24.6,4.8c-10.3,0.8-23.3,1.3-39.1,1.3
		c-17.2,0-31.6-0.6-43.3-1.8c-11.7-1.2-21.1-4.1-28.3-8.6c-7.2-4.5-12.3-11.7-15.4-21.5c-3.1-9.8-4.6-22.4-4.6-37.8h203.2l2.9-11.4
		c0-10.6-0.6-20.7-1.7-30.2c-1.1-9.5-3.2-17.9-6.3-25c-3-7.1-7.2-13.9-12.5-20.3c-5.3-6.4-12.2-11.9-20.7-16.5
		c-8.5-4.5-18.8-8-30.8-10.4c-12-2.4-26.1-3.6-42.5-3.6c-22.9,0-42.3,1.7-58.3,5.2c-16,3.5-29,9.5-39,18.2
		c-10,8.7-17.3,20.4-21.8,35.1c-4.5,14.7-6.8,33.4-6.8,55.9c0,19.7,2.3,36,6.8,49c4.5,13,11.8,23.4,21.8,31.1
		c10,7.8,23,13.2,39,16.4c16,3.2,35.4,4.7,58.3,4.7C4738.4,5079.6,4756.5,5078.5,4771.1,5076.3L4771.1,5076.3z M4753.6,4895.4
		c10.1,1.9,18.4,5.4,24.9,10.6c6.4,5.1,11.1,11.7,14.1,19.6c3,7.9,4.5,18.9,4.5,32.8h-171.7c0-10.5,0.7-19.5,2.1-26.9
		c1.4-7.5,3.5-13.2,6.4-17.3c2.9-4.1,6.8-7.7,11.5-10.7c4.8-3,10.5-5.4,17.3-7c6.7-1.6,14.6-2.7,23.6-3.1c9-0.5,19.2-0.7,30.7-0.7
		C4731.3,4892.5,4743.5,4893.5,4753.6,4895.4L4753.6,4895.4z M5117.6,5075.7l0.2-114.5c0-10.5-0.4-20.2-1.3-29.1
		c-0.8-8.9-2.5-16.9-5.1-24.1c-2.6-7.2-6.2-13.6-10.8-19c-4.7-5.5-10.8-10.1-18.5-13.8c-7.7-3.7-17.1-6.5-28.1-8.4
		c-11-1.9-24.2-2.9-39.4-2.9c-5.2,0-11.1,0.2-17.4,0.5c-6.4,0.4-13,1-19.8,2.1c-6.8,1-13.6,2.4-20.4,4.3c-6.8,1.9-13.1,4.3-19,7.2
		c-5.8,3-11.1,6.6-15.7,10.8c-4.7,4.2-8.2,9.3-10.7,15.1v-34.3h-34.3v206h34.3v-125.9c0-8.6,1.3-16.4,3.8-23.4
		c2.6-7,7.2-13.1,14-18.1c6.8-5,16.1-8.9,28-11.6c11.9-2.7,27.1-4.1,45.7-4.1c17.2,0,31,1.2,41.5,3.6c10.5,2.4,18.6,6.3,24.3,11.6
		c5.7,5.4,9.5,12.4,11.4,21.2c1.9,8.8,2.9,19.5,2.9,32.3v114.5H5117.6L5117.6,5075.7z M5175,5075.7h34.3v-206H5175V5075.7
		L5175,5075.7z M5209.4,4800.9H5175v34.3h34.3V4800.9L5209.4,4800.9z M5266.8,4869.6l-0.2,114.5c0,10.4,0.4,19.9,1.2,28.6
		c0.8,8.7,2.5,16.6,5,23.7c2.5,7.1,6.1,13.3,10.7,18.7c4.6,5.4,10.8,9.9,18.5,13.5c7.7,3.6,17,6.4,28,8.2s24.2,2.8,39.6,2.8
		c18.5,0,34-1.4,46.5-4.1c12.5-2.7,22.6-6.1,30.5-10.1c7.9-4,13.8-8.3,17.7-13c3.9-4.7,6.7-8.9,8.4-12.8v36h34.3v-206h-34.3v124.7
		c0,8.5-1.3,16.2-3.9,23.2c-2.6,7-7.3,12.9-14.1,17.9c-6.8,5-16.1,8.8-28,11.5c-11.9,2.7-27.1,4.1-45.7,4.1c-17.2,0-31-1.2-41.5-3.5
		c-10.5-2.4-18.6-6.2-24.3-11.5c-5.7-5.3-9.5-12.3-11.5-21c-1.9-8.7-2.9-19.3-2.9-32v-113.4H5266.8L5266.8,4869.6z"/>
	<g>
		<defs>
			<rect id="SVGID_11_" x="4431.9" y="4707" width="1337" height="520"/>
		</defs>
		<clipPath id="SVGID_12_">
			<use xlink:href="#SVGID_11_"  style="display:none;overflow:visible;"/>
		</clipPath>
		<path class="st7" d="M5770.4,4948c0-8.3,1.2-15.9,3.5-22.7c2.3-6.8,6.5-12.6,12.4-17.4c6-4.8,14.1-8.6,24.5-11.3
			c10.4-2.7,23.6-4,39.7-4c14.7,0,26.5,1.2,35.5,3.5c9,2.3,16,6.1,20.9,11.4c4.9,5.2,8.2,12.1,9.8,20.7c1.6,8.5,2.4,19,2.4,31.4
			v116.3h34.3v-116.3c0-10.3-0.4-19.8-1.1-28.5c-0.7-8.8-2.2-16.7-4.4-23.8c-2.2-7.1-5.4-13.3-9.5-18.7c-4.1-5.4-9.6-9.9-16.4-13.5
			c-6.8-3.6-15.1-6.4-25-8.2c-9.8-1.8-21.6-2.8-35.3-2.8c-16.7,0-30.8,1.3-42.4,4c-11.6,2.7-21.2,6-28.9,9.9
			c-7.7,3.9-13.7,8-18,12.3c-4.3,4.3-7.5,8-9.5,11.3c-2.5-6.1-5.9-11.5-10.1-16.2c-4.2-4.7-9.7-8.6-16.5-11.8
			c-6.7-3.2-14.8-5.5-24.3-7.2c-9.5-1.6-20.7-2.4-33.5-2.4c-13.1,0-24.4,0.9-34,2.7c-9.5,1.8-17.7,4.1-24.4,6.8
			c-6.7,2.7-12.2,5.7-16.5,8.9c-4.2,3.2-7.6,6.2-10,9c-2.4,2.8-4.1,5.2-5.1,7.2c-1,2-1.5,3.2-1.6,3.6v-32.6h-34.3v206h34.3V4948
			c0-8.3,1.2-15.9,3.5-22.7c2.3-6.8,6.5-12.6,12.4-17.4c6-4.8,14.1-8.6,24.5-11.3s23.6-4,39.7-4c14.7,0,26.5,1.2,35.5,3.5
			c9,2.3,16,6.1,20.9,11.4c4.9,5.2,8.2,12.1,9.8,20.7c1.6,8.5,2.4,19,2.4,31.4v116.3h34.3V4948L5770.4,4948z"/>
	</g>
</g>
<rect x="4247.4" y="4869.6" class="st6" width="34.3" height="206"/>
<rect x="4247.4" y="4800.9" class="st6" width="34.3" height="34.3"/>
</svg>
