<?xml version="1.0" encoding="utf-8"?>
<!-- Generator: Adobe Illustrator 22.1.0, SVG Export Plug-In . SVG Version: 6.00 Build 0)  -->
<svg version="1.1" id="Layer_1" xmlns="http://www.w3.org/2000/svg" xmlns:xlink="http://www.w3.org/1999/xlink" x="0px" y="0px"
	 viewBox="0 0 10000 10000" style="enable-background:new 0 0 10000 10000;" xml:space="preserve">
<style type="text/css">
	.st0{clip-path:url(#SVGID_3_);}
	.st1{clip-path:url(#SVGID_4_);fill:#E78200;}
	.st2{clip-path:url(#SVGID_7_);}
	.st3{clip-path:url(#SVGID_8_);fill:#E78200;}
	.st4{fill:#E78200;}
	.st5{clip-path:url(#SVGID_11_);}
	.st6{clip-path:url(#SVGID_12_);}
	.st7{fill:#FFFFFF;}
</style>
<g>
	<g>
		<defs>
			
				<rect id="SVGID_1_" x="335.8" y="4386.5" transform="matrix(0.6946 -0.7194 0.7194 0.6946 -3155.7549 2162.2314)" width="1266.2" height="823.3"/>
		</defs>
		<defs>
			<rect id="SVGID_2_" x="737.7" y="4233.6" width="8532.2" height="1541"/>
		</defs>
		<clipPath id="SVGID_3_">
			<use xlink:href="#SVGID_1_"  style="overflow:visible;"/>
		</clipPath>
		<clipPath id="SVGID_4_" class="st0">
			<use xlink:href="#SVGID_2_"  style="overflow:visible;"/>
		</clipPath>
		<path class="st1" d="M1160.6,4300.2l-91.8-65.5c-333.4,389.5-426,866.4-219.2,1131.2l126.8-115.6
			C803.2,5027.2,880.5,4627.5,1160.6,4300.2L1160.6,4300.2z"/>
	</g>
	<g>
		<defs>
			
				<rect id="SVGID_5_" x="774.4" y="4798.4" transform="matrix(0.6946 -0.7194 0.7194 0.6946 -3318.127 2603.4912)" width="1266.2" height="823.3"/>
		</defs>
		<defs>
			<rect id="SVGID_6_" x="737.7" y="4233.6" width="8532.2" height="1541"/>
		</defs>
		<clipPath id="SVGID_7_">
			<use xlink:href="#SVGID_5_"  style="overflow:visible;"/>
		</clipPath>
		<clipPath id="SVGID_8_" class="st2">
			<use xlink:href="#SVGID_6_"  style="overflow:visible;"/>
		</clipPath>
		<path class="st3" d="M1215.7,5707.9l91.8,65.5c333.4-389.5,425.9-866.4,219.2-1131.2L1400,4757.8
			C1573.2,4980.9,1495.8,5380.6,1215.7,5707.9L1215.7,5707.9z"/>
	</g>
	<path class="st4" d="M9269.1,5026.6c0,98.3-79.6,177.9-177.9,177.9c-98.2,0-177.9-79.6-177.9-177.9c0-98.2,79.6-177.9,177.9-177.9
		C9189.4,4848.7,9269.1,4928.4,9269.1,5026.6L9269.1,5026.6z"/>
	<g>
		<defs>
			<rect id="SVGID_9_" x="3321.7" y="4233.6" width="3962.3" height="1541"/>
		</defs>
		<defs>
			<rect id="SVGID_10_" x="3321.7" y="4233.6" width="3962.3" height="1541"/>
		</defs>
		<clipPath id="SVGID_11_">
			<use xlink:href="#SVGID_9_"  style="display:none;overflow:visible;"/>
		</clipPath>
		<clipPath id="SVGID_12_" class="st5">
			<use xlink:href="#SVGID_10_"  style="display:none;overflow:visible;"/>
		</clipPath>
		<g id="XMLID_1_" class="st6">
			<g>
				<path class="st7" d="M7831.3,4981.7v344.5h-101.8v-344.5c0-36.7-2.4-67.8-7.1-93c-4.8-25.3-14.5-45.7-29.2-61.2
					c-14.7-15.6-35.4-26.8-62-33.7c-26.7-6.9-61.8-10.3-105.2-10.3c-47.7,0-86.9,4-117.7,11.9c-30.7,7.9-54.9,19.1-72.6,33.4
					c-17.7,14.3-30,31.5-36.8,51.7c-6.9,20.2-10.3,42.6-10.3,67.3v378.5h-101.8v-344.5c0-36.7-2.4-67.8-7.1-93
					c-4.8-25.3-14.5-45.7-29.2-61.2c-14.7-15.6-35.4-26.8-62-33.7c-26.7-6.9-61.8-10.3-105.2-10.3c-47.7,0-86.9,4-117.7,11.9
					c-30.7,7.9-54.9,19.1-72.6,33.4c-17.7,14.3-30,31.5-36.8,51.7c-6.9,20.2-10.3,42.6-10.3,67.3v378.5H6644v-610.6h101.8v96.5
					c0.4-1.1,1.9-4.6,4.8-10.6c2.8-6,7.9-13.2,15.1-21.5c7.2-8.3,17.1-17.2,29.7-26.8c12.5-9.5,28.8-18.4,48.8-26.5
					c19.9-8.1,44.1-14.8,72.3-20.2c28.3-5.3,61.9-7.9,100.7-7.9c38.1,0,71.3,2.4,99.4,7.1s52.1,11.9,72.1,21.2
					c19.9,9.4,36.2,21,48.8,35s22.5,30,30,48c6-9.5,15.4-20.7,28.1-33.4c12.7-12.7,30.5-24.9,53.3-36.6
					c22.8-11.7,51.3-21.5,85.6-29.4c34.3-7.9,76.1-11.9,125.6-11.9c40.6,0,75.5,2.7,104.7,8.2s53.8,13.6,73.9,24.4
					c20.2,10.8,36.3,24.1,48.5,40c12.2,15.9,21.5,34.4,28.1,55.4c6.5,21,10.8,44.5,13,70.5
					C7830.2,4923.1,7831.3,4951.3,7831.3,4981.7z"/>
				<path class="st7" d="M6508.3,4715.6v610.6h-101.8v-106.7c-4.9,11.4-13.3,24.1-24.9,37.9c-11.7,13.8-29.2,26.7-52.5,38.5
					c-23.4,11.8-53.5,21.8-90.5,29.9c-37,8.1-82.9,12.2-137.7,12.2c-45.5,0-84.6-2.8-117.3-8.2c-32.7-5.5-60.4-13.6-83.1-24.4
					c-22.8-10.8-41.1-24.1-54.8-40c-13.8-15.9-24.4-34.4-31.8-55.4c-7.4-21-12.4-44.4-14.8-70.2c-2.5-25.8-3.7-54.1-3.7-84.8
					l0.5-339.2h101.2v335.9c0,37.5,2.8,69,8.5,94.7c5.7,25.7,17,46.4,34,62.2c17,15.7,41,27.1,72.2,34.1s72.2,10.5,123.1,10.5
					c55.2,0,100.4-4,135.6-12.1c35.2-8.1,62.9-19.4,83-34.1c20.2-14.7,34-32.4,41.6-53c7.6-20.7,11.4-43.6,11.4-68.8v-369.5H6508.3z
					"/>
				<rect x="5523.9" y="4715.6" class="st7" width="101.8" height="610.6"/>
				<rect x="5523.9" y="4512" class="st7" width="101.8" height="101.8"/>
				<path class="st7" d="M5354.3,4987l-0.5,339.2H5252V4987c0-37.8-2.8-69.7-8.5-95.7c-5.7-26-17-46.9-33.9-62.8
					c-17-15.9-41-27.4-72.1-34.5c-31.1-7.1-72.1-10.6-123-10.6c-55.1,0-100.3,4.1-135.4,12.2c-35.1,8.1-62.8,19.6-83,34.4
					c-20.1,14.8-34,32.7-41.6,53.6c-7.6,20.8-11.4,44-11.4,69.4v373.1h-101.8v-610.6h101.8v101.8c7.4-17.3,18-32.2,31.8-44.8
					s29.3-23.2,46.6-32.1c17.3-8.8,36-16,56.2-21.5c20.1-5.5,40.3-9.7,60.4-12.7c20.1-3,39.7-5,58.6-6.1c18.9-1,36.1-1.6,51.7-1.6
					c45.2,0,84.2,2.8,116.9,8.5c32.7,5.7,60.4,14,83.2,24.9c22.8,11,41.1,24.6,54.9,40.8c13.8,16.2,24.4,35.1,32.1,56.5
					c7.6,21.4,12.6,45.2,15.1,71.5C5353.1,4927.2,5354.3,4955.9,5354.3,4987z"/>
				<path class="st7" d="M3813.4,5183.1c-13.4-38.5-20.2-86.9-20.2-145.2c0-66.8,6.7-122,20.2-165.7c13.4-43.6,35-78.4,64.7-104.1
					c29.7-25.8,68.2-43.8,115.6-54.1c47.4-10.2,105-15.4,172.8-15.4c48.4,0,90.4,3.5,125.9,10.6c35.5,7.1,65.9,17.3,91.2,30.8
					c25.3,13.4,45.8,29.7,61.5,48.8c15.7,19.1,28.1,39.1,37.1,60.2c9,21,15.2,45.7,18.6,73.9c3.3,28.3,5,58.1,5,89.6l-8.5,33.9
					h-602.2c0,45.5,4.6,82.8,13.8,111.9c9.2,29.1,24.4,50.4,45.6,63.8c21.2,13.4,49.1,22,83.8,25.6c34.6,3.6,77.4,5.4,128.3,5.4
					c46.6,0,85.2-1.2,115.8-3.8c30.6-2.5,54.9-7.3,72.9-14.3c18-7,30.7-16.8,37.9-29.4c7.2-12.6,10.9-28.9,10.9-49h101.8
					c0,32.9-5.7,60.9-17.2,84c-11.5,23.1-30.5,41.9-57,56.2c-26.5,14.3-61.4,24.7-104.7,31.3c-43.3,6.5-96.7,9.8-160.3,9.8
					c-67.8,0-125.4-4.7-172.8-14c-47.4-9.4-85.9-25.5-115.6-48.5C3848.4,5252.3,3826.9,5221.6,3813.4,5183.1z M3895.1,4978.5h508.9
					c0-41.3-4.4-73.8-13.2-97.3c-8.9-23.5-22.8-42.8-41.9-58c-19.1-15.2-43.7-25.6-73.7-31.3c-30-5.7-66.2-8.5-108.6-8.5
					c-33.9,0-64.2,0.7-90.9,2.1c-26.7,1.4-50,4.5-69.9,9.3c-20,4.8-37,11.6-51.2,20.7c-14.1,9-25.5,19.6-34.2,31.8
					c-8.7,12.2-15,29.3-19.1,51.4C3897.1,4920.8,3895.1,4947.4,3895.1,4978.5z"/>
				<path class="st7" d="M3589.7,5054.8h84.8c0,52-4.2,95.3-12.7,130.1c-8.5,34.8-22.7,62.6-42.7,83.5c-20,20.9-46.2,35.7-78.7,44.5
					c-32.5,8.8-72.6,13.2-120.3,13.2c-46.3,0-85.2-3.5-116.6-10.6c-31.5-7.1-56.9-19.1-76.3-36c-19.4-16.9-33.4-39.5-41.9-67.7
					c-8.5-28.2-12.7-63.5-12.7-105.8v-305.8H3047v-84.8h125.6v-165.9h101.8v165.9h383.3v84.8h-383.3V5106c0,33.8,2.6,59.9,7.7,78.3
					c5.1,18.3,13.3,31.7,24.6,40.2c11.3,8.4,26.3,13.4,44.8,14.8c18.6,1.4,41.3,2.1,68.1,2.1c21.2,0,40.2-0.4,57-1.1
					c16.8-0.7,31.4-2.9,44-6.6c12.5-3.7,23.2-9.3,32.1-17c8.8-7.6,16-18.3,21.5-32.1c5.5-13.8,9.4-31.2,11.9-52.2
					C3588.5,5111.5,3589.7,5085.6,3589.7,5054.8z"/>
				<rect x="2775" y="4715.6" class="st7" width="101.8" height="610.6"/>
				<rect x="2775" y="4512" class="st7" width="101.8" height="101.8"/>
			</g>
			<g>
			</g>
		</g>
	</g>
</g>
</svg>
