<?xml version="1.0" encoding="utf-8"?>
<!-- Generator: Adobe Illustrator 22.1.0, SVG Export Plug-In . SVG Version: 6.00 Build 0)  -->
<svg version="1.1" id="Layer_1" xmlns="http://www.w3.org/2000/svg" xmlns:xlink="http://www.w3.org/1999/xlink" x="0px" y="0px"
	 viewBox="0 0 10000 10000" style="enable-background:new 0 0 10000 10000;" xml:space="preserve">
<style type="text/css">
	.st0{display:none;}
	.st1{display:inline;}
	.st2{fill:#E78200;}
	.st3{fill:#B2B2B2;}
	.st4{font-family:'Michroma';}
	.st5{font-size:630.1233px;}
</style>
<g id="Background" class="st0">
	<rect y="0" class="st1" width="9982.3" height="10000"/>
</g>
<path class="st2" d="M9666.1,4945.9c0,106.4-86.2,192.6-192.6,192.6c-106.3,0-192.6-86.2-192.6-192.6
	c0-106.3,86.2-192.6,192.6-192.6C9579.9,4753.3,9666.1,4839.5,9666.1,4945.9L9666.1,4945.9z"/>
<g id="itenium">
	<path class="st3" d="M8202,4868.3c0-35.2,4.9-67.1,14.7-95.8c9.8-28.7,27.3-53.2,52.4-73.5c25.1-20.4,59.6-36.2,103.3-47.5
		c43.7-11.3,99.6-17,167.4-17c61.8,0,111.7,4.9,149.7,14.7c38,9.8,67.4,25.8,88.2,47.9c20.9,22.1,34.7,51.2,41.5,87.1
		c6.8,36,10.2,80.1,10.2,132.4v490.3h144.8v-490.3c0-43.2-1.5-83.3-4.5-120.3c-3-37-9.2-70.4-18.5-100.3
		c-9.3-29.9-22.6-56.2-40-78.8s-40.4-41.6-69-56.9c-28.7-15.3-63.7-26.9-105.2-34.7c-41.5-7.8-91.1-11.7-149-11.7
		c-70.4,0-130,5.7-178.8,17c-48.8,11.3-89.4,25.3-121.8,41.9c-32.4,16.6-57.7,33.9-75.8,52c-18.1,18.1-31.4,33.9-40,47.5
		c-10.6-25.6-24.8-48.4-42.6-68.3c-17.9-19.9-41-36.5-69.4-49.8c-28.4-13.3-62.6-23.4-102.6-30.2c-40-6.8-87.1-10.2-141.4-10.2
		c-55.3,0-103.1,3.8-143.3,11.3c-40.2,7.5-74.6,17.1-103,28.7c-28.4,11.6-51.5,24.1-69.4,37.7c-17.9,13.6-31.9,26.3-42.2,38.1
		c-10.3,11.8-17.5,22-21.5,30.5c-4,8.6-6.3,13.6-6.8,15.1v-137.3h-144.8v868.9h144.8v-538.5c0-35.2,4.9-67.1,14.7-95.8
		c9.8-28.7,27.3-53.2,52.4-73.5c25.1-20.4,59.6-36.2,103.3-47.5c43.7-11.3,99.6-17,167.4-17c61.8,0,111.7,4.9,149.7,14.7
		c38,9.8,67.4,25.8,88.2,47.9c20.9,22.1,34.7,51.2,41.5,87.1c6.8,36,10.2,80.1,10.2,132.4v490.3H8202V4868.3L8202,4868.3z"/>
	<path class="st3" d="M3987.6,5409.4c61.6-9.3,111.3-24.1,149-44.5c37.7-20.4,64.7-47,81.1-79.9c16.3-32.9,24.5-72.8,24.5-119.5
		h-144.8c0,28.6-5.2,51.8-15.5,69.7c-10.3,17.9-28.3,31.8-53.9,41.8c-25.6,10-60.2,16.8-103.7,20.4c-43.5,3.6-98.4,5.4-164.8,5.4
		c-72.4,0-133.3-2.6-182.5-7.7c-49.3-5.1-89-17.3-119.2-36.4c-30.2-19.1-51.8-49.4-64.9-90.8c-13.1-41.4-19.6-94.5-19.6-159.2h856.8
		l12.1-48.3c0-44.7-2.4-87.2-7.2-127.5c-4.8-40.2-13.6-75.3-26.4-105.2c-12.8-29.9-30.4-58.5-52.8-85.6
		c-22.4-27.2-51.5-50.3-87.5-69.4c-36-19.1-79.2-33.7-129.7-43.7c-50.5-10.1-110.2-15.1-179.1-15.1c-96.5,0-178.5,7.3-245.9,21.9
		c-67.4,14.6-122.2,40.2-164.4,76.9c-42.2,36.7-72.9,86.1-92,148.2c-19.1,62.1-28.7,140.7-28.7,235.7c0,83,9.5,151.9,28.7,206.7
		c19.1,54.8,49.8,98.6,92,131.2c42.2,32.7,97,55.7,164.4,69c67.4,13.3,149.3,20,245.9,20C3850,5423.4,3926,5418.7,3987.6,5409.4
		L3987.6,5409.4z M3914.1,4646.5c42.7,8,77.7,22.9,104.8,44.5c27.2,21.6,47,49.2,59.6,82.6c12.6,33.4,18.9,79.6,18.9,138.4h-724.1
		c0-44.2,2.9-82.1,8.7-113.5c5.8-31.4,14.8-55.8,27.2-73.2c12.3-17.3,28.5-32.4,48.6-45.3c20.1-12.8,44.4-22.6,72.8-29.4
		c28.4-6.8,61.6-11.2,99.6-13.2c38-2,81.1-3,129.4-3C3819.8,4634.4,3871.4,4638.5,3914.1,4646.5L3914.1,4646.5z M5449,5406.8
		l0.8-482.7c0-44.2-1.8-85.1-5.3-122.6c-3.5-37.5-10.7-71.4-21.5-101.8c-10.8-30.4-26-57.2-45.6-80.3
		c-19.6-23.1-45.6-42.5-78.1-58.1c-32.4-15.6-71.9-27.4-118.4-35.5c-46.5-8-102-12.1-166.3-12.1c-22.1,0-46.6,0.8-73.5,2.3
		c-26.9,1.5-54.7,4.4-83.3,8.7c-28.7,4.3-57.3,10.3-86,18.1c-28.7,7.8-55.3,18-79.9,30.5c-24.6,12.6-46.8,27.8-66.4,45.6
		c-19.6,17.9-34.7,39.1-45.3,63.7v-144.8h-144.8v868.9h144.8v-531c0-36.2,5.4-69.1,16.2-98.8c10.8-29.7,30.5-55.1,59.2-76.2
		c28.7-21.1,68-37.5,118-49c50-11.6,114.3-17.3,192.7-17.3c72.4,0,130.7,5,175,15.1c44.2,10.1,78.4,26.4,102.6,49
		c24.1,22.6,40.2,52.4,48.3,89.4c8,37,12.1,82.3,12.1,136.1v482.7H5449L5449,5406.8z M5691.1,5406.8h144.8v-868.9h-144.8V5406.8
		L5691.1,5406.8z M5835.9,4248.3h-144.8v144.8h144.8V4248.3L5835.9,4248.3z M6078,4537.9l-0.8,482.7c0,43.7,1.8,84,5.3,120.7
		c3.5,36.7,10.5,70,21.1,99.9c10.5,29.9,25.6,56.2,45.2,78.8c19.6,22.6,45.6,41.6,78,56.9c32.4,15.3,71.8,26.9,118.3,34.7
		c46.5,7.8,102.1,11.7,166.9,11.7c78,0,143.3-5.8,195.9-17.3c52.6-11.5,95.5-25.7,128.7-42.5c33.2-16.8,58.1-35,74.8-54.7
		c16.6-19.7,28.4-37.7,35.5-53.9v151.9h144.8v-868.9h-144.8v525.8c0,35.9-5.4,68.5-16.2,97.8c-10.8,29.4-30.6,54.5-59.3,75.4
		c-28.7,20.9-68.1,37.1-118.2,48.6s-114.4,17.2-192.9,17.2c-72.5,0-130.9-5-175.2-14.9c-44.3-10-78.5-26.1-102.7-48.6
		c-24.2-22.4-40.3-51.9-48.3-88.5c-8.1-36.6-12.1-81.5-12.1-134.8v-478H6078L6078,4537.9z"/>
	<path class="st3" d="M2938.9,5020.6c0,43.7-1.8,80.6-5.3,110.5c-3.5,29.9-9.2,54.7-17,74.3c-7.8,19.6-18,34.8-30.5,45.6
		c-12.6,10.8-27.8,18.9-45.6,24.1c-17.9,5.3-38.7,8.4-62.6,9.4c-23.9,1-50.9,1.5-81.1,1.5c-38.2,0-70.5-1-96.9-3
		c-26.4-2-47.6-9-63.7-21.1c-16.1-12-27.8-31.1-35.1-57.2c-7.3-26.1-10.9-63.2-10.9-111.4v-434.9h545.3v-120.7h-545.3v-236.1h-144.8
		v236.1h-178.8v120.7h178.8v435.1c0,60.2,6,110.4,18.1,150.5c12.1,40.2,31.9,72.3,59.6,96.4c27.6,24.1,63.9,41.1,108.6,51.2
		c44.7,10,100.1,15,165.9,15c67.9,0,124.9-6.3,171.2-18.9c46.3-12.6,83.6-33.7,112-63.4c28.4-29.7,48.6-69.3,60.7-118.8
		c12.1-49.5,18.1-111.3,18.1-185.2H2938.9L2938.9,5020.6z"/>
	<rect x="1779.5" y="4537.9" class="st3" width="144.8" height="868.9"/>
	<rect x="1779.5" y="4248.3" class="st3" width="144.8" height="144.8"/>
</g>
<g id="Left_Parenthesis">
	<path class="st2" d="M803.6,4135.6L701,4062.5c-372.3,434.9-475.6,967.3-244.8,1263l141.6-129.1
		C404.5,4947.3,490.8,4501,803.6,4135.6L803.6,4135.6z"/>
</g>
<g id="Right_Parenthesis">
	<path class="st2" d="M865.1,5707.3l102.5,73.1c372.3-434.9,475.6-967.3,244.8-1263l-141.6,129.1
		C1264.2,4895.6,1177.8,5341.9,865.1,5707.3L865.1,5707.3z"/>
</g>
<text transform="matrix(1 0 0 1 2163.9575 6278.3247)" class="st3 st4 st5">IT-Consultancy </text>
</svg>
