<?xml version="1.0" encoding="utf-8"?>
<!-- Generator: Adobe Illustrator 22.1.0, SVG Export Plug-In . SVG Version: 6.00 Build 0)  -->
<svg version="1.1" id="Layer_1" xmlns="http://www.w3.org/2000/svg" xmlns:xlink="http://www.w3.org/1999/xlink" x="0px" y="0px"
	 viewBox="0 0 10000 10000" style="enable-background:new 0 0 10000 10000;" xml:space="preserve">
<style type="text/css">
	.st0{fill:#E78200;}
	.st1{fill:#7E7E7E;}
	.st2{font-family:'Michroma';}
	.st3{font-size:500px;}
</style>
<g id="Layer_3">
	<path class="st0" d="M9587.8,4945.9c0,106.4-86.2,192.6-192.6,192.6c-106.3,0-192.6-86.2-192.6-192.6
		c0-106.3,86.2-192.6,192.6-192.6C9501.6,4753.3,9587.8,4839.5,9587.8,4945.9L9587.8,4945.9z"/>
</g>
<g id="Right_Bracket">
	<path class="st1" d="M7443.8,4860.5c0-26.8,3.7-51.1,11.2-72.9s20.7-40.5,39.9-55.9c19.1-15.5,45.3-27.5,78.6-36.2
		c33.3-8.6,75.7-12.9,127.4-12.9c47.1,0,85,3.7,113.9,11.2c28.9,7.5,51.3,19.6,67.1,36.4c15.9,16.8,26.4,38.9,31.6,66.3
		c5.2,27.4,7.7,60.9,7.7,100.7v373h110.2v-373c0-32.9-1.1-63.4-3.4-91.5c-2.3-28.1-7-53.6-14.1-76.3c-7.1-22.8-17.2-42.7-30.4-60
		s-30.7-31.6-52.5-43.3c-21.8-11.7-48.5-20.5-80-26.4c-31.6-5.9-69.3-8.9-113.3-8.9c-53.6,0-98.9,4.3-136,12.9
		c-37.1,8.6-68,19.2-92.7,31.8c-24.7,12.6-43.9,25.8-57.7,39.6c-13.8,13.8-23.9,25.8-30.4,36.1c-8-19.5-18.8-36.8-32.4-51.9
		c-13.6-15.1-31.2-27.7-52.8-37.9c-21.6-10.1-47.6-17.8-78-23c-30.4-5.2-66.3-7.7-107.6-7.7c-42.1,0-78.4,2.9-109,8.6
		c-30.6,5.7-56.7,13-78.3,21.8c-21.6,8.8-39.2,18.4-52.8,28.7c-13.6,10.3-24.3,20-32.1,29c-7.8,9-13.3,16.7-16.4,23.2
		c-3.1,6.5-4.8,10.3-5.2,11.5v-104.4H6746v661h110.2v-409.7c0-26.8,3.7-51.1,11.2-72.9c7.5-21.8,20.7-40.5,39.9-55.9
		c19.1-15.5,45.3-27.5,78.6-36.2c33.3-8.6,75.7-12.9,127.4-12.9c47.1,0,85,3.7,113.9,11.2c28.9,7.5,51.3,19.6,67.1,36.4
		c15.9,16.8,26.4,38.9,31.6,66.3c5.2,27.4,7.7,60.9,7.7,100.7v373h110.2V4860.5L7443.8,4860.5z"/>
	<path class="st1" d="M4237.6,5272.2c46.9-7.1,84.6-18.4,113.3-33.9s49.2-35.8,61.7-60.8c12.4-25.1,18.6-55.4,18.6-90.9h-110.2
		c0,21.8-3.9,39.4-11.8,53c-7.8,13.6-21.5,24.2-41,31.8c-19.5,7.6-45.8,12.8-78.9,15.5c-33.1,2.7-74.9,4.1-125.4,4.1
		c-55.1,0-101.4-2-138.9-5.9c-37.5-3.9-67.7-13.1-90.7-27.7c-23-14.5-39.4-37.6-49.3-69.1c-10-31.5-14.9-71.9-14.9-121.1h651.8
		l9.2-36.7c0-34-1.8-66.4-5.5-97c-3.6-30.6-10.3-57.3-20.1-80c-9.8-22.8-23.1-44.5-40.2-65.1c-17-20.7-39.2-38.2-66.6-52.8
		c-27.4-14.5-60.3-25.6-98.7-33.3c-38.4-7.6-83.9-11.5-136.3-11.5c-73.4,0-135.8,5.5-187.1,16.6c-51.3,11.1-93,30.6-125.1,58.5
		c-32.1,27.9-55.5,65.5-70,112.8c-14.5,47.2-21.8,107-21.8,179.3c0,63.1,7.3,115.5,21.8,157.2c14.5,41.7,37.9,75,70,99.8
		c32.1,24.9,73.8,42.4,125.1,52.5c51.3,10.1,113.6,15.2,187.1,15.2C4132.9,5282.8,4190.8,5279.3,4237.6,5272.2L4237.6,5272.2z
		 M4181.7,4691.8c32.5,6.1,59.1,17.4,79.8,33.9c20.7,16.5,35.8,37.4,45.3,62.8c9.6,25.4,14.3,60.5,14.3,105.3h-550.9
		c0-33.7,2.2-62.4,6.6-86.4c4.4-23.9,11.3-42.5,20.7-55.7c9.4-13.2,21.7-24.7,37-34.4c15.3-9.8,33.8-17.2,55.4-22.4
		c21.6-5.2,46.9-8.5,75.7-10c28.9-1.5,61.7-2.3,98.4-2.3C4110,4682.6,4149.2,4685.7,4181.7,4691.8L4181.7,4691.8z M5349.4,5270.2
		l0.6-367.2c0-33.7-1.3-64.7-4-93.2c-2.7-28.5-8.1-54.3-16.4-77.5c-8.2-23.1-19.8-43.5-34.7-61.1c-14.9-17.6-34.7-32.3-59.4-44.2
		c-24.7-11.9-54.7-20.8-90.1-27c-35.4-6.1-77.6-9.2-126.5-9.2c-16.8,0-35.5,0.6-55.9,1.7c-20.5,1.1-41.6,3.4-63.4,6.6
		c-21.8,3.3-43.6,7.8-65.4,13.8c-21.8,5.9-42.1,13.7-60.8,23.2c-18.7,9.6-35.6,21.1-50.5,34.7c-14.9,13.6-26.4,29.7-34.4,48.5
		v-110.2h-110.2v661h110.2v-404c0-27.5,4.1-52.6,12.3-75.2c8.2-22.6,23.2-41.9,45-58c21.8-16.1,51.7-28.5,89.8-37.3
		c38.1-8.8,86.9-13.2,146.6-13.2c55.1,0,99.5,3.8,133.1,11.5c33.7,7.7,59.7,20.1,78,37.3s30.6,39.9,36.7,68
		c6.1,28.1,9.2,62.6,9.2,103.6v367.2H5349.4L5349.4,5270.2z M5533.6,5270.2h110.2v-661h-110.2V5270.2L5533.6,5270.2z M5643.8,4388.8
		h-110.2V4499h110.2V4388.8L5643.8,4388.8z M5827.9,4609.2l-0.6,367.2c0,33.3,1.3,63.9,4,91.8c2.7,27.9,8,53.3,16,76
		c8,22.8,19.5,42.7,34.4,60c14.9,17.2,34.7,31.7,59.3,43.3c24.6,11.7,54.6,20.5,90,26.4c35.3,5.9,77.7,8.9,127,8.9
		c59.4,0,109-4.4,149.1-13.2c40-8.8,72.7-19.6,97.9-32.3c25.3-12.8,44.2-26.7,56.9-41.6c12.6-15,21.6-28.6,27-41v115.6h110.2v-661
		H6489v400c0,27.3-4.1,52.1-12.4,74.4c-8.2,22.4-23.3,41.5-45.1,57.4c-21.8,15.9-51.8,28.2-89.9,36.9c-38.1,8.7-87,13.1-146.8,13.1
		c-55.1,0-99.6-3.8-133.3-11.4c-33.7-7.6-59.7-19.9-78.1-36.9c-18.4-17-30.6-39.5-36.8-67.3c-6.1-27.8-9.2-62-9.2-102.6v-363.7
		H5827.9L5827.9,4609.2z"/>
	<path class="st1" d="M3439.7,4976.4c0,33.3-1.3,61.3-4,84.1c-2.7,22.8-7,41.6-12.9,56.5c-5.9,14.9-13.7,26.5-23.2,34.7
		c-9.6,8.2-21.1,14.3-34.7,18.4c-13.6,4-29.5,6.4-47.6,7.2c-18.2,0.8-38.7,1.1-61.7,1.1c-29.1,0-53.7-0.8-73.7-2.3
		c-20.1-1.5-36.2-6.9-48.5-16c-12.2-9.2-21.1-23.7-26.7-43.5c-5.6-19.8-8.3-48.1-8.3-84.7V4701h414.9v-91.8h-414.9v-179.6h-110.2
		v179.6h-136v91.8h136v331c0,45.8,4.6,84,13.8,114.5c9.2,30.5,24.3,55,45.3,73.3c21,18.3,48.6,31.3,82.6,38.9
		c34,7.6,76.1,11.4,126.2,11.4c51.6,0,95.1-4.8,130.3-14.3c35.2-9.6,63.6-25.6,85.2-48.2c21.6-22.6,37-52.7,46.2-90.4
		c9.2-37.7,13.8-84.6,13.8-140.9H3439.7L3439.7,4976.4z"/>
	<rect x="2557.7" y="4609.2" class="st1" width="110.2" height="661"/>
	<rect x="2557.7" y="4388.8" class="st1" width="110.2" height="110.2"/>
</g>
<g id="Left_Parenthesis">
	<path class="st0" d="M810.1,4159.5l-99.4-70.9c-361,421.7-461.1,937.9-237.3,1224.6L610.7,5188
		C423.2,4946.5,506.9,4513.8,810.1,4159.5L810.1,4159.5z"/>
</g>
<g id="Right_Parenthesis">
	<path class="st0" d="M869.8,5683.4l99.4,70.9c361-421.7,461.1-937.9,237.3-1224.6l-137.3,125.2
		C1256.7,4896.4,1173,5329.1,869.8,5683.4L869.8,5683.4z"/>
</g>
<text transform="matrix(1 0 0 1 2814.4751 6043.7021)" class="st1 st2 st3">IT  Consultancy </text>
</svg>
