<?xml version="1.0" encoding="utf-8"?>
<!-- Generator: Adobe Illustrator 22.1.0, SVG Export Plug-In . SVG Version: 6.00 Build 0)  -->
<svg version="1.1" id="Layer_1" xmlns="http://www.w3.org/2000/svg" xmlns:xlink="http://www.w3.org/1999/xlink" x="0px" y="0px"
	 viewBox="0 0 2022.5 2022.5" style="enable-background:new 0 0 2022.5 2022.5;" xml:space="preserve">
<style type="text/css">
	.st0{clip-path:url(#SVGID_3_);}
	.st1{display:none;clip-path:url(#SVGID_4_);}
	.st2{display:inline;}
	.st3{fill:#FFFFFF;}
	.st4{clip-path:url(#SVGID_9_);}
	.st5{clip-path:url(#SVGID_10_);}
	.st6{clip-path:url(#SVGID_11_);}
	.st7{clip-path:url(#SVGID_12_);fill:#E78200;}
	.st8{fill:#7E7E7E;}
</style>
<g>
	<g>
		<defs>
			<rect id="SVGID_1_" x="1514.8" y="286.5" width="3959.5" height="1539.9"/>
		</defs>
		<defs>
			<rect id="SVGID_2_" x="1514.8" y="286.5" width="3959.5" height="1539.9"/>
		</defs>
		<clipPath id="SVGID_3_">
			<use xlink:href="#SVGID_1_"  style="display:none;overflow:visible;"/>
		</clipPath>
		<clipPath id="SVGID_4_" class="st0">
			<use xlink:href="#SVGID_2_"  style="display:none;overflow:visible;"/>
		</clipPath>
		<g id="XMLID_1_" class="st1">
			<g class="st2">
				<rect x="968.4" y="768.1" class="st3" width="101.7" height="610.2"/>
				<rect x="968.4" y="564.7" class="st3" width="101.7" height="101.7"/>
			</g>
		</g>
	</g>
	<g>
		<defs>
			
				<rect id="SVGID_5_" x="367" y="805.7" transform="matrix(0.6946 -0.7194 0.7194 0.6946 -570.2207 1090.7845)" width="1265.3" height="822.7"/>
		</defs>
		<defs>
			<rect id="SVGID_6_" x="330.3" y="241.4" width="8526.2" height="1539.9"/>
		</defs>
		<defs>
			
				<rect id="SVGID_7_" x="-71.2" y="394.1" transform="matrix(0.6946 -0.7194 0.7194 0.6946 -407.9609 649.8314)" width="1265.3" height="822.7"/>
		</defs>
		<defs>
			<rect id="SVGID_8_" x="330.3" y="241.4" width="8526.2" height="1539.9"/>
		</defs>
		<clipPath id="SVGID_9_">
			<use xlink:href="#SVGID_5_"  style="display:none;overflow:visible;"/>
		</clipPath>
		<clipPath id="SVGID_10_" class="st4">
			<use xlink:href="#SVGID_6_"  style="display:none;overflow:visible;"/>
		</clipPath>
		<clipPath id="SVGID_11_" class="st5">
			<use xlink:href="#SVGID_7_"  style="display:none;overflow:visible;"/>
		</clipPath>
		<clipPath id="SVGID_12_" class="st6">
			<use xlink:href="#SVGID_8_"  style="display:none;overflow:visible;"/>
		</clipPath>
		<path class="st7" d="M808.1,1714.6l91.8,65.4c333.2-389.2,425.6-865.8,219.1-1130.4L992.2,765.1
			C1165.3,988.1,1088,1387.6,808.1,1714.6L808.1,1714.6z"/>
		<path class="st7" d="M753,307.9l-91.8-65.4C328,631.7,235.6,1108.2,442.2,1372.9l126.7-115.6C395.8,1034.4,473.1,634.9,753,307.9
			L753,307.9z"/>
	</g>
</g>
<path class="st8" d="M1696.6,1011.2c0,98.2-79.6,177.8-177.8,177.8c-98.2,0-177.8-79.6-177.8-177.8c0-98.2,79.6-177.8,177.8-177.8
	C1617,833.5,1696.6,913.1,1696.6,1011.2L1696.6,1011.2z"/>
</svg>
